<svg width="256" height="78" viewBox="0 0 256 78" fill="none" xmlns="http://www.w3.org/2000/svg">
<rect width="256" height="78" fill="#1F0B01"/>
<path d="M31.192 48.176C31.192 47.408 31.3093 46.416 31.544 45.2C31.8 43.9627 32.12 42.64 32.504 41.232C32.9093 39.8027 33.368 38.352 33.88 36.88C34.392 35.3867 34.9147 33.9893 35.448 32.688C35.9813 31.3867 36.504 30.2453 37.016 29.264C37.528 28.2827 37.9867 27.5787 38.392 27.152C38.6053 27.1733 38.8827 27.2587 39.224 27.408C39.5867 27.536 39.9493 27.696 40.312 27.888C40.6747 28.08 41.0053 28.2933 41.304 28.528C41.6027 28.7413 41.7947 28.944 41.88 29.136C41.2613 29.6907 40.6427 30.5333 40.024 31.664C39.4267 32.7733 38.84 34.0427 38.264 35.472C37.7093 36.9013 37.1867 38.416 36.696 40.016C36.2053 41.5947 35.7787 43.1307 35.416 44.624C35.0533 46.1173 34.7653 47.504 34.552 48.784C34.36 50.064 34.264 51.0987 34.264 51.888C34.264 52.2507 34.296 52.4747 34.36 52.56C33.8907 52.5387 33.5493 52.4533 33.336 52.304C33.1227 52.176 32.952 52.0267 32.824 51.856C32.7173 51.7067 32.6107 51.5467 32.504 51.376C32.4187 51.2267 32.28 51.1093 32.088 51.024C31.9387 50.96 31.8107 50.8107 31.704 50.576C31.5973 50.3413 31.5013 50.0853 31.416 49.808C31.352 49.5093 31.2987 49.2107 31.256 48.912C31.2133 48.6133 31.192 48.368 31.192 48.176ZM41.0515 38.672C41.0515 38.288 41.0728 37.9253 41.1155 37.584C41.1795 37.2427 41.2968 36.9547 41.4675 36.72C41.6382 36.464 41.8728 36.272 42.1715 36.144C42.4702 35.9947 42.8648 35.92 43.3555 35.92C43.6542 35.92 43.9848 35.952 44.3475 36.016C44.7315 36.08 45.0088 36.1973 45.1795 36.368C45.0942 36.7307 45.0195 37.0507 44.9555 37.328C44.9128 37.6053 44.8702 37.9147 44.8275 38.256C44.8062 38.576 44.7848 38.9707 44.7635 39.44C44.7422 39.888 44.7208 40.4747 44.6995 41.2C44.6568 42.6507 44.5822 43.952 44.4755 45.104C44.3902 46.2347 44.1768 47.3653 43.8355 48.496C43.8355 48.5813 43.8675 48.624 43.9315 48.624C44.2515 48.3893 44.6142 48.048 45.0195 47.6C45.4248 47.152 45.8515 46.6507 46.2995 46.096C46.7475 45.52 47.1955 44.912 47.6435 44.272C48.0915 43.632 48.5075 43.0027 48.8915 42.384C49.4035 41.488 49.9688 40.368 50.5875 39.024C51.2062 37.68 51.7182 36.24 52.1235 34.704C52.2515 34.704 52.4115 34.736 52.6035 34.8C52.8168 34.8427 53.0195 34.9067 53.2115 34.992C53.4248 35.056 53.6062 35.1307 53.7555 35.216C53.9262 35.3013 54.0435 35.376 54.1075 35.44C54.0648 36.3573 53.8408 37.296 53.4355 38.256C53.0515 39.216 52.5822 40.144 52.0275 41.04C51.4728 41.936 50.8862 42.7787 50.2675 43.568C49.6488 44.3573 49.0835 45.04 48.5715 45.616C47.5475 46.8107 46.5128 47.8773 45.4675 48.816C44.4435 49.7547 43.2168 50.6613 41.7875 51.536C41.2328 51.3227 40.7955 51.0347 40.4755 50.672C40.1555 50.3307 39.9955 49.968 39.9955 49.584C39.9955 49.328 40.0488 49.04 40.1555 48.72C40.2835 48.3787 40.4222 47.952 40.5715 47.44C40.7208 46.9067 40.8488 46.2453 40.9555 45.456C41.0835 44.6667 41.1475 43.664 41.1475 42.448C41.1475 41.744 41.1262 41.04 41.0835 40.336C41.0622 39.6107 41.0515 39.056 41.0515 38.672ZM64.6753 37.072C64.8886 37.072 65.1339 37.1147 65.4113 37.2C65.7099 37.264 65.9766 37.36 66.2113 37.488C66.4459 37.5947 66.6379 37.712 66.7873 37.84C66.9579 37.968 67.0433 38.0853 67.0433 38.192C66.6166 39.088 66.2219 39.9947 65.8593 40.912C65.4966 41.808 65.1873 42.672 64.9313 43.504C64.6753 44.336 64.4726 45.1147 64.3233 45.84C64.1953 46.5653 64.1313 47.1947 64.1313 47.728C64.1313 48.3253 64.1953 48.8267 64.3233 49.232C64.4513 49.616 64.6646 49.8933 64.9633 50.064C64.7073 50.2347 64.3766 50.3733 63.9713 50.48C63.5659 50.5867 63.2033 50.64 62.8833 50.64C61.7313 50.64 61.1553 49.8507 61.1553 48.272C61.1553 47.056 61.5606 45.392 62.3713 43.28C61.9446 44.2613 61.4539 45.1893 60.8993 46.064C60.3446 46.9173 59.7793 47.6747 59.2033 48.336C58.6273 48.9973 58.0406 49.5413 57.4433 49.968C56.8673 50.3733 56.3339 50.6187 55.8433 50.704C55.0539 50.6613 54.4139 50.288 53.9233 49.584C53.4326 48.8587 53.1873 47.9413 53.1873 46.832C53.1873 45.6373 53.4433 44.3787 53.9553 43.056C54.4673 41.7333 55.1179 40.5067 55.9073 39.376C56.7179 38.2453 57.5926 37.3067 58.5312 36.56C59.4699 35.792 60.3766 35.3867 61.2513 35.344C61.4646 35.408 61.6993 35.536 61.9553 35.728C62.2326 35.92 62.4886 36.144 62.7233 36.4C62.9793 36.656 63.1926 36.9227 63.3633 37.2C63.5339 37.456 63.6299 37.68 63.6513 37.872C62.7979 38 61.9126 38.416 60.9953 39.12C60.0993 39.824 59.2779 40.6773 58.5312 41.68C57.8059 42.6613 57.2086 43.7173 56.7393 44.848C56.2699 45.9787 56.0353 47.0347 56.0353 48.016C56.0353 48.4213 56.1846 48.6773 56.4833 48.784C57.1019 48.656 57.8166 48.1333 58.6273 47.216C59.4379 46.2773 60.4193 44.8373 61.5713 42.896C61.7846 42.512 62.0193 42.0853 62.2753 41.616C62.5526 41.1467 62.8299 40.656 63.1073 40.144C63.3846 39.632 63.6513 39.12 63.9073 38.608C64.1846 38.0747 64.4406 37.5627 64.6753 37.072ZM68.3873 26.672C68.6006 26.8 68.8139 27.0133 69.0273 27.312C69.2619 27.5893 69.4646 27.9093 69.6353 28.272C69.8273 28.6133 69.9766 28.9653 70.0833 29.328C70.1899 29.6907 70.2433 30.0213 70.2433 30.32C69.4326 30.8747 68.7179 31.3333 68.0993 31.696C67.5019 32.0587 66.9579 32.3573 66.4673 32.592C65.9979 32.8053 65.5819 32.9653 65.2193 33.072C64.8566 33.1573 64.5046 33.2 64.1633 33.2C63.4806 33.2 62.8939 32.9973 62.4033 32.592C62.8726 32.4213 63.3633 32.1547 63.8753 31.792C64.3873 31.4293 64.8993 30.992 65.4113 30.48C65.9446 29.968 66.4566 29.392 66.9473 28.752C67.4593 28.112 67.9393 27.4187 68.3873 26.672ZM73.8505 34.48C74.4052 34.6507 74.9278 35.0347 75.4185 35.632C75.9092 36.208 76.2718 36.848 76.5065 37.552C76.2718 38.128 75.9092 38.8213 75.4185 39.632C74.9278 40.4427 74.4372 41.2747 73.9465 42.128C73.4558 42.96 73.0078 43.76 72.6025 44.528C72.2185 45.2747 71.9945 45.8933 71.9305 46.384C72.2718 46.0213 72.6452 45.6053 73.0505 45.136C73.4772 44.6453 73.8825 44.1653 74.2665 43.696C74.6718 43.2053 75.0452 42.768 75.3865 42.384C75.7278 41.9787 75.9945 41.68 76.1865 41.488C76.5918 41.0613 77.0718 40.5707 77.6265 40.016C78.1812 39.44 78.7572 38.9067 79.3545 38.416C79.9732 37.904 80.5918 37.4773 81.2105 37.136C81.8292 36.7733 82.3945 36.592 82.9065 36.592C83.4612 36.592 83.9198 36.784 84.2825 37.168C84.6665 37.5307 84.9652 37.9147 85.1785 38.32C85.1785 38.3627 85.0932 38.4267 84.9225 38.512C84.7732 38.576 84.5492 38.7787 84.2505 39.12C83.9518 39.504 83.6105 40.0373 83.2265 40.72C82.8638 41.3813 82.5012 42.1067 82.1385 42.896C81.7972 43.664 81.5092 44.4533 81.2745 45.264C81.0398 46.0747 80.9225 46.8107 80.9225 47.472C80.9225 48.0053 80.9865 48.3467 81.1145 48.496C81.2638 48.6453 81.4665 48.72 81.7225 48.72C81.9572 48.72 82.2025 48.6667 82.4585 48.56C82.7145 48.4533 82.9172 48.4 83.0665 48.4C83.1518 48.4427 83.2158 48.5387 83.2585 48.688C83.3225 48.816 83.3545 48.9333 83.3545 49.04C83.1838 49.1893 82.9812 49.3387 82.7465 49.488C82.5118 49.6373 82.2665 49.776 82.0105 49.904C81.7545 50.032 81.4985 50.1387 81.2425 50.224C81.0078 50.3093 80.7945 50.352 80.6025 50.352C79.9838 50.352 79.4718 50.256 79.0665 50.064C78.6825 49.8933 78.3732 49.6587 78.1385 49.36C77.9252 49.0613 77.7758 48.7093 77.6905 48.304C77.6052 47.8773 77.5625 47.4293 77.5625 46.96C77.5625 46.704 77.5838 46.416 77.6265 46.096C77.6692 45.776 77.7545 45.4027 77.8825 44.976C78.0105 44.528 78.1918 44.0053 78.4265 43.408C78.6612 42.7893 78.9598 42.0533 79.3225 41.2C79.2798 41.2 78.9918 41.3493 78.4585 41.648C77.9252 41.9467 77.3492 42.4053 76.7305 43.024C75.7278 43.984 74.8212 44.9333 74.0105 45.872C73.2212 46.8107 72.4105 47.856 71.5785 49.008C71.1092 49.6693 70.6932 50.224 70.3305 50.672C69.9892 51.1413 69.6905 51.4507 69.4345 51.6C68.9865 51.344 68.6558 50.9813 68.4425 50.512C68.2292 50.064 68.0692 49.5947 67.9625 49.104C67.9625 48.6987 68.0158 48.1867 68.1225 47.568C68.2505 46.9493 68.4105 46.2667 68.6025 45.52C68.8158 44.752 69.0718 43.952 69.3705 43.12C69.6692 42.288 69.9998 41.456 70.3625 40.624C71.1732 38.7467 71.9092 37.2747 72.5705 36.208C73.2532 35.1413 73.6798 34.5653 73.8505 34.48ZM95.0128 43.728C95.0128 42.2347 95.1834 40.7733 95.5248 39.344C95.8874 37.8933 96.3888 36.528 97.0288 35.248C97.6688 33.9467 98.4261 32.7627 99.3008 31.696C100.197 30.608 101.167 29.6693 102.213 28.88C103.279 28.0907 104.41 27.4827 105.605 27.056C106.799 26.608 108.026 26.384 109.285 26.384C110.757 26.384 111.898 26.6933 112.709 27.312C113.541 27.9307 113.957 28.7947 113.957 29.904C113.957 30.3307 113.893 30.768 113.765 31.216C113.658 31.664 113.487 32.112 113.253 32.56C113.039 32.9867 112.783 33.4027 112.485 33.808C112.186 34.2133 111.855 34.5653 111.493 34.864C110.938 34.7787 110.458 34.5333 110.053 34.128C109.647 33.7013 109.391 33.2107 109.285 32.656C110.031 32.0373 110.618 31.3973 111.045 30.736C111.493 30.0533 111.717 29.4347 111.717 28.88C111.717 27.9413 111.13 27.472 109.957 27.472C109.466 27.472 108.954 27.5787 108.421 27.792C107.909 27.984 107.386 28.2613 106.853 28.624C106.319 28.9867 105.797 29.424 105.285 29.936C104.794 30.448 104.335 31.0133 103.909 31.632C100.943 35.8987 99.4608 40.2613 99.4608 44.72C99.4608 46.2987 99.7061 47.568 100.197 48.528C100.687 49.488 101.338 50.0533 102.149 50.224C103.066 50.0107 104.229 49.424 105.637 48.464C107.045 47.504 108.581 46.256 110.245 44.72C110.458 44.9333 110.586 45.1573 110.629 45.392C110.01 46.2027 109.37 46.9813 108.709 47.728C108.047 48.4747 107.386 49.1573 106.725 49.776C106.085 50.3947 105.445 50.9387 104.805 51.408C104.186 51.8773 103.61 52.24 103.077 52.496C100.431 52.4533 98.4261 51.696 97.0608 50.224C95.6954 48.752 95.0128 46.5867 95.0128 43.728ZM112.666 49.456C112.666 48.7093 112.74 47.8347 112.89 46.832C113.039 45.808 113.252 44.72 113.53 43.568C113.828 42.416 114.17 41.2107 114.554 39.952C114.959 38.6933 115.407 37.4347 115.898 36.176C116.324 35.0453 116.815 33.904 117.37 32.752C117.946 31.6 118.564 30.4693 119.226 29.36C119.887 28.2507 120.57 27.1947 121.274 26.192C121.999 25.1893 122.724 24.272 123.45 23.44C123.791 23.44 124.154 23.4827 124.538 23.568C124.943 23.6533 125.327 23.7707 125.69 23.92C126.074 24.048 126.415 24.208 126.714 24.4C127.034 24.592 127.29 24.784 127.482 24.976C125.882 26.6187 124.442 28.2827 123.162 29.968C121.882 31.632 120.868 33.2 120.122 34.672C119.716 35.4827 119.343 36.24 119.002 36.944C118.682 37.648 118.383 38.352 118.106 39.056C117.828 39.7387 117.572 40.432 117.338 41.136C117.124 41.8187 116.922 42.544 116.73 43.312C120.826 38.0853 123.866 35.472 125.85 35.472C126.404 35.472 127.002 35.6533 127.642 36.016C128.282 36.3787 128.847 36.8693 129.338 37.488C128.676 38.2133 127.994 39.088 127.29 40.112C126.586 41.136 125.935 42.1707 125.338 43.216C124.762 44.24 124.282 45.2 123.898 46.096C123.535 46.9707 123.354 47.6213 123.354 48.048C123.354 48.2613 123.386 48.4107 123.45 48.496C123.514 48.56 123.652 48.592 123.866 48.592C124.186 48.592 124.442 48.5493 124.634 48.464C124.826 48.3787 124.943 48.336 124.986 48.336C125.092 48.5067 125.156 48.624 125.178 48.688C125.199 48.752 125.21 48.8053 125.21 48.848C125.21 48.9333 125.082 49.0613 124.826 49.232C124.57 49.3813 124.26 49.5413 123.898 49.712C123.556 49.8613 123.215 50 122.874 50.128C122.532 50.256 122.276 50.32 122.106 50.32C121.892 50.32 121.679 50.256 121.466 50.128C121.252 50.0213 121.06 49.872 120.89 49.68C120.74 49.488 120.612 49.2747 120.506 49.04C120.42 48.8053 120.378 48.56 120.378 48.304C120.378 47.984 120.463 47.5147 120.634 46.896C120.826 46.256 121.082 45.52 121.402 44.688C121.722 43.8347 122.106 42.9067 122.554 41.904C123.002 40.9013 123.482 39.8773 123.994 38.832C123.994 38.7467 123.951 38.704 123.866 38.704C123.802 38.704 123.631 38.7893 123.354 38.96C123.098 39.1307 122.852 39.3013 122.618 39.472C121.85 40.048 121.071 40.7627 120.282 41.616C119.514 42.448 118.756 43.3653 118.01 44.368C117.284 45.3707 116.591 46.4373 115.93 47.568C115.29 48.6773 114.735 49.7973 114.266 50.928C114.202 51.0773 114.106 51.216 113.978 51.344C113.85 51.472 113.743 51.536 113.658 51.536C113.594 51.536 113.498 51.4613 113.37 51.312C113.263 51.1627 113.156 50.9707 113.05 50.736C112.964 50.5227 112.879 50.2987 112.794 50.064C112.708 49.8293 112.666 49.6267 112.666 49.456ZM140.685 36.752C140.6 38.0747 140.365 39.216 139.981 40.176C139.597 41.1147 139.042 41.9467 138.317 42.672C137.613 43.376 136.749 44.016 135.725 44.592C134.701 45.168 133.506 45.7227 132.141 46.256C132.141 46.384 132.13 46.5227 132.109 46.672C132.109 46.8 132.109 46.9387 132.109 47.088C132.109 47.3653 132.13 47.6533 132.173 47.952C132.216 48.2507 132.29 48.528 132.397 48.784C132.504 49.04 132.653 49.2533 132.845 49.424C133.037 49.5733 133.282 49.648 133.581 49.648C134.157 49.648 134.722 49.52 135.277 49.264C135.832 49.008 136.354 48.6987 136.845 48.336C137.357 47.952 137.826 47.5467 138.253 47.12C138.701 46.672 139.096 46.2667 139.437 45.904C139.65 46.096 139.832 46.2773 139.981 46.448C139.021 47.728 137.965 48.7947 136.813 49.648C135.682 50.48 134.605 51.0133 133.581 51.248C132.109 51.0773 130.957 50.544 130.125 49.648C129.314 48.7307 128.909 47.632 128.909 46.352C128.909 45.4773 129.026 44.592 129.261 43.696C129.517 42.7787 129.858 41.904 130.285 41.072C130.733 40.2187 131.245 39.4187 131.821 38.672C132.418 37.9253 133.048 37.2747 133.709 36.72C134.392 36.1653 135.085 35.728 135.789 35.408C136.514 35.088 137.229 34.928 137.933 34.928C138.914 35.056 139.832 35.664 140.685 36.752ZM138.477 37.808C137.901 37.8933 137.304 38.128 136.685 38.512C136.066 38.896 135.48 39.408 134.925 40.048C134.392 40.688 133.901 41.4347 133.453 42.288C133.005 43.1413 132.653 44.0587 132.397 45.04C134.104 44.1867 135.522 43.1413 136.653 41.904C137.784 40.6453 138.392 39.28 138.477 37.808ZM143.677 59.248C143.143 59.0347 142.823 58.6293 142.717 58.032C142.631 57.456 142.269 56.9867 141.629 56.624C141.799 55.536 141.991 54.4373 142.205 53.328C142.418 52.2187 142.685 50.96 143.005 49.552C143.346 48.1227 143.762 46.4693 144.253 44.592C144.765 42.6933 145.405 40.4 146.173 37.712C145.469 37.712 144.914 37.7227 144.509 37.744C144.103 37.7653 143.709 37.808 143.325 37.872C143.239 37.7867 143.165 37.6693 143.101 37.52C143.058 37.3707 143.036 37.232 143.036 37.104C143.25 37.0187 143.687 36.912 144.349 36.784C145.01 36.6347 145.735 36.5067 146.525 36.4C147.037 34.7787 147.623 33.328 148.285 32.048C148.946 30.7467 149.661 29.6373 150.429 28.72C151.197 27.8027 152.007 27.0987 152.861 26.608C153.714 26.1173 154.578 25.872 155.453 25.872C155.709 25.872 155.954 25.8933 156.189 25.936C156.423 25.9573 156.605 25.968 156.733 25.968C156.925 25.8187 157.181 25.6907 157.501 25.584C157.821 25.456 158.098 25.392 158.333 25.392C158.589 25.392 158.919 25.5307 159.325 25.808C159.154 26.1067 158.973 26.512 158.781 27.024C158.589 27.536 158.429 28.0373 158.301 28.528C157.767 30.1067 157.202 31.1307 156.605 31.6C156.37 31.6 156.242 31.2907 156.221 30.672C156.199 30.224 156.135 29.7867 156.029 29.36C155.943 29.168 155.879 28.9973 155.837 28.848C155.815 28.6987 155.805 28.5067 155.805 28.272C155.805 28.144 155.815 27.9947 155.837 27.824C155.858 27.632 155.901 27.3227 155.965 26.896C155.602 26.896 155.197 27.12 154.749 27.568C154.322 28.016 153.863 28.656 153.373 29.488C152.903 30.2987 152.423 31.2693 151.933 32.4C151.442 33.5307 150.973 34.7787 150.525 36.144L153.213 36.048C153.319 36.1547 153.405 36.4 153.469 36.784C153.554 37.1467 153.607 37.5307 153.629 37.936L150.109 37.744C149.298 40.1547 148.541 42.4587 147.837 44.656C147.133 46.8533 146.503 48.88 145.949 50.736C145.394 52.592 144.914 54.2453 144.509 55.696C144.125 57.168 143.847 58.352 143.677 59.248ZM163.769 37.264C163.748 37.6693 163.673 38.096 163.545 38.544C163.438 38.9707 163.3 39.3653 163.129 39.728C162.958 40.0693 162.777 40.3573 162.585 40.592C162.393 40.8267 162.212 40.944 162.041 40.944C161.806 40.9227 161.668 40.7627 161.625 40.464C161.625 40.4 161.646 40.304 161.689 40.176C161.753 40.0267 161.817 39.8667 161.881 39.696C161.945 39.5253 161.998 39.3547 162.041 39.184C162.105 39.0133 162.137 38.864 162.137 38.736C162.137 38.4373 162.062 38.192 161.913 38C161.785 37.7867 161.604 37.68 161.369 37.68C160.516 37.68 159.865 38.2133 159.417 39.28C158.969 40.3467 158.745 41.9147 158.745 43.984C158.745 44.1973 158.756 44.3253 158.777 44.368C159.225 44.3467 159.62 44.336 159.961 44.336C160.324 44.3147 160.676 44.304 161.017 44.304C161.038 44.3467 161.049 44.432 161.049 44.56C161.049 44.752 161.006 44.8907 160.921 44.976C160.43 45.0827 160.036 45.1787 159.737 45.264C159.46 45.328 159.246 45.392 159.097 45.456C158.948 45.52 158.852 45.5947 158.809 45.68C158.788 45.744 158.777 45.84 158.777 45.968C158.777 46.1387 158.777 46.3093 158.777 46.48C158.798 46.6507 158.809 46.864 158.809 47.12C158.809 48.912 158.318 50.352 157.337 51.44C156.377 52.528 155.033 53.1573 153.305 53.328C153.006 53.3067 152.697 53.2213 152.377 53.072C152.057 52.9227 151.748 52.7307 151.449 52.496C151.172 52.2613 150.926 51.9947 150.713 51.696C150.5 51.4187 150.35 51.1307 150.265 50.832C150.265 50.0213 150.436 49.2533 150.777 48.528C151.118 47.7813 151.577 47.1307 152.153 46.576C152.75 46 153.444 45.5413 154.233 45.2C155.044 44.8373 155.918 44.624 156.857 44.56C156.857 44.0267 156.804 43.504 156.697 42.992C156.59 42.48 156.473 41.9893 156.345 41.52C156.238 41.0293 156.132 40.56 156.025 40.112C155.918 39.6427 155.865 39.184 155.865 38.736C155.865 38.16 155.982 37.5947 156.217 37.04C156.452 36.464 156.761 35.9413 157.145 35.472C157.529 34.9813 157.977 34.5653 158.489 34.224C159.001 33.8827 159.534 33.648 160.089 33.52C160.324 33.584 160.633 33.776 161.017 34.096C161.422 34.3947 161.817 34.736 162.201 35.12C162.585 35.504 162.926 35.8987 163.225 36.304C163.524 36.688 163.705 37.008 163.769 37.264ZM153.209 51.856C153.721 51.6427 154.201 51.3333 154.649 50.928C155.118 50.5227 155.524 50.064 155.865 49.552C156.206 49.04 156.473 48.496 156.665 47.92C156.878 47.344 156.985 46.7787 156.985 46.224C156.558 46.288 156.089 46.4907 155.577 46.832C155.065 47.152 154.585 47.5467 154.137 48.016C153.689 48.464 153.316 48.9333 153.017 49.424C152.718 49.9147 152.569 50.3413 152.569 50.704C152.569 51.1733 152.782 51.5573 153.209 51.856ZM183.545 26.352C184.355 26.352 185.198 26.5013 186.073 26.8C186.947 27.0987 187.715 27.4827 188.377 27.952C188.163 29.04 187.961 30.0213 187.769 30.896C187.598 31.7707 187.438 32.5707 187.289 33.296C187.139 34 186.99 34.6507 186.841 35.248C186.713 35.824 186.585 36.368 186.457 36.88C185.945 38.8 185.411 40.5387 184.857 42.096C184.323 43.632 183.747 45.0187 183.129 46.256C182.531 47.4933 181.891 48.592 181.209 49.552C180.547 50.512 179.833 51.3547 179.065 52.08C178.318 52.784 177.571 53.36 176.825 53.808C176.078 54.256 175.385 54.544 174.745 54.672C173.891 54.672 173.102 54.576 172.377 54.384C171.651 54.192 171.022 53.9253 170.489 53.584C169.977 53.264 169.571 52.8693 169.273 52.4C168.995 51.952 168.857 51.4507 168.857 50.896C168.857 50.2987 169.006 49.552 169.305 48.656C169.603 47.7387 170.062 46.6613 170.681 45.424C170.937 45.4453 171.235 45.5093 171.577 45.616C171.918 45.7227 172.259 45.8507 172.601 46C172.942 46.1493 173.251 46.32 173.529 46.512C173.806 46.6827 174.009 46.8533 174.137 47.024C173.454 47.728 172.899 48.5067 172.473 49.36C172.046 50.192 171.833 50.9173 171.833 51.536C171.833 51.8987 171.897 52.2187 172.025 52.496C172.174 52.7947 172.419 53.0613 172.761 53.296C174.062 52.8053 175.331 51.888 176.569 50.544C177.806 49.2213 178.905 47.568 179.865 45.584C180.441 44.4107 180.963 43.0667 181.433 41.552C181.902 40.0373 182.297 38.5227 182.617 37.008C182.958 35.472 183.214 34.0107 183.385 32.624C183.577 31.216 183.673 30.032 183.673 29.072C183.673 28.9227 183.662 28.72 183.641 28.464C183.641 28.1867 183.63 27.9093 183.609 27.632C183.609 27.3333 183.598 27.0667 183.577 26.832C183.555 26.5973 183.545 26.4373 183.545 26.352ZM196.152 49.296C195.746 48.9547 195.469 48.528 195.32 48.016C195.192 47.504 195.128 47.0667 195.128 46.704C195.128 46.256 195.181 45.872 195.288 45.552C195.202 45.552 195.01 45.7227 194.712 46.064C194.413 46.4053 194.082 46.8107 193.72 47.28C193.378 47.7493 193.037 48.208 192.696 48.656C192.354 49.104 192.098 49.4347 191.928 49.648C191.65 49.9467 191.384 50.1813 191.128 50.352C190.893 50.5227 190.701 50.6187 190.552 50.64C190.21 50.6187 189.848 50.544 189.464 50.416C189.101 50.3093 188.749 50.1493 188.408 49.936C188.088 49.7227 187.8 49.4667 187.544 49.168C187.309 48.8693 187.149 48.528 187.064 48.144C187.064 47.5467 187.074 47.056 187.096 46.672C187.138 46.288 187.213 45.872 187.32 45.424C187.512 44.6133 187.789 43.696 188.152 42.672C188.536 41.648 188.973 40.6453 189.464 39.664C189.954 38.6613 190.498 37.7333 191.096 36.88C191.714 36.0053 192.365 35.3227 193.048 34.832C193.24 34.832 193.464 34.8533 193.72 34.896C193.976 34.9173 194.232 34.9707 194.488 35.056C194.765 35.1413 195.021 35.248 195.256 35.376C195.512 35.4827 195.725 35.632 195.896 35.824C195.704 36.0373 195.213 36.752 194.424 37.968C193.656 39.184 192.792 40.9333 191.832 43.216C191.725 43.4507 191.597 43.792 191.448 44.24C191.298 44.688 191.149 45.1573 191 45.648C190.85 46.1387 190.722 46.6187 190.616 47.088C190.53 47.5573 190.488 47.9307 190.488 48.208C190.488 48.3787 190.509 48.5067 190.552 48.592C190.616 48.6773 190.669 48.7413 190.712 48.784C191.032 48.656 191.437 48.304 191.928 47.728C192.418 47.152 193.101 46.2667 193.976 45.072C194.189 44.7733 194.434 44.432 194.712 44.048C195.01 43.664 195.309 43.2587 195.608 42.832C195.906 42.384 196.184 41.9253 196.44 41.456C196.717 40.9867 196.941 40.5173 197.112 40.048C197.197 39.792 197.304 39.4933 197.432 39.152C197.581 38.7893 197.752 38.416 197.944 38.032C198.157 37.648 198.392 37.264 198.648 36.88C198.925 36.4747 199.245 36.1013 199.608 35.76C199.885 35.76 200.184 35.792 200.504 35.856C200.824 35.92 201.122 36.0053 201.4 36.112C201.698 36.1973 201.954 36.304 202.168 36.432C202.381 36.5387 202.541 36.656 202.648 36.784C202.264 37.7227 201.837 38.6507 201.368 39.568C200.898 40.4853 200.461 41.392 200.056 42.288C199.65 43.1627 199.309 44.0373 199.032 44.912C198.754 45.7867 198.616 46.64 198.616 47.472C198.616 47.92 198.648 48.3147 198.712 48.656C198.797 48.976 198.882 49.2533 198.968 49.488C199.053 49.7013 199.128 49.8827 199.192 50.032C199.277 50.1813 199.32 50.3093 199.32 50.416C199.32 50.4373 199.298 50.4693 199.256 50.512C199.234 50.5333 199.213 50.544 199.192 50.544C199.042 50.544 198.85 50.512 198.616 50.448C198.381 50.384 198.114 50.288 197.816 50.16C197.538 50.0533 197.25 49.9253 196.952 49.776C196.674 49.6267 196.408 49.4667 196.152 49.296ZM214.3 37.264C214.279 37.6693 214.204 38.096 214.076 38.544C213.97 38.9707 213.831 39.3653 213.66 39.728C213.49 40.0693 213.308 40.3573 213.116 40.592C212.924 40.8267 212.743 40.944 212.572 40.944C212.338 40.9227 212.199 40.7627 212.156 40.464C212.156 40.4 212.178 40.304 212.22 40.176C212.284 40.0267 212.348 39.8667 212.412 39.696C212.476 39.5253 212.53 39.3547 212.572 39.184C212.636 39.0133 212.668 38.864 212.668 38.736C212.668 38.4373 212.594 38.192 212.444 38C212.316 37.7867 212.135 37.68 211.9 37.68C211.047 37.68 210.396 38.2133 209.948 39.28C209.5 40.3467 209.276 41.9147 209.276 43.984C209.276 44.1973 209.287 44.3253 209.308 44.368C209.756 44.3467 210.151 44.336 210.492 44.336C210.855 44.3147 211.207 44.304 211.548 44.304C211.57 44.3467 211.58 44.432 211.58 44.56C211.58 44.752 211.538 44.8907 211.452 44.976C210.962 45.0827 210.567 45.1787 210.268 45.264C209.991 45.328 209.778 45.392 209.628 45.456C209.479 45.52 209.383 45.5947 209.34 45.68C209.319 45.744 209.308 45.84 209.308 45.968C209.308 46.1387 209.308 46.3093 209.308 46.48C209.33 46.6507 209.34 46.864 209.34 47.12C209.34 48.912 208.85 50.352 207.868 51.44C206.908 52.528 205.564 53.1573 203.836 53.328C203.538 53.3067 203.228 53.2213 202.908 53.072C202.588 52.9227 202.279 52.7307 201.98 52.496C201.703 52.2613 201.458 51.9947 201.244 51.696C201.031 51.4187 200.882 51.1307 200.796 50.832C200.796 50.0213 200.967 49.2533 201.308 48.528C201.65 47.7813 202.108 47.1307 202.684 46.576C203.282 46 203.975 45.5413 204.764 45.2C205.575 44.8373 206.45 44.624 207.388 44.56C207.388 44.0267 207.335 43.504 207.228 42.992C207.122 42.48 207.004 41.9893 206.876 41.52C206.77 41.0293 206.663 40.56 206.556 40.112C206.45 39.6427 206.396 39.184 206.396 38.736C206.396 38.16 206.514 37.5947 206.748 37.04C206.983 36.464 207.292 35.9413 207.676 35.472C208.06 34.9813 208.508 34.5653 209.02 34.224C209.532 33.8827 210.066 33.648 210.62 33.52C210.855 33.584 211.164 33.776 211.548 34.096C211.954 34.3947 212.348 34.736 212.732 35.12C213.116 35.504 213.458 35.8987 213.756 36.304C214.055 36.688 214.236 37.008 214.3 37.264ZM203.74 51.856C204.252 51.6427 204.732 51.3333 205.18 50.928C205.65 50.5227 206.055 50.064 206.396 49.552C206.738 49.04 207.004 48.496 207.196 47.92C207.41 47.344 207.516 46.7787 207.516 46.224C207.09 46.288 206.62 46.4907 206.108 46.832C205.596 47.152 205.116 47.5467 204.668 48.016C204.22 48.464 203.847 48.9333 203.548 49.424C203.25 49.9147 203.1 50.3413 203.1 50.704C203.1 51.1733 203.314 51.5573 203.74 51.856ZM216.211 37.744C216.104 37.616 216.008 37.3493 215.923 36.944C215.837 36.5173 215.795 36.1547 215.795 35.856C216.349 35.8987 216.883 35.9413 217.395 35.984C217.907 36.0053 218.376 36.0267 218.803 36.048C219.123 35.408 219.464 34.7787 219.827 34.16C220.211 33.52 220.573 32.944 220.915 32.432C221.277 31.8987 221.608 31.4507 221.907 31.088C222.227 30.7253 222.472 30.4907 222.643 30.384C222.856 30.384 223.123 30.4267 223.443 30.512C223.784 30.576 224.125 30.672 224.467 30.8C224.808 30.9067 225.117 31.024 225.395 31.152C225.672 31.28 225.864 31.408 225.971 31.536C225.331 32.3467 224.776 33.104 224.307 33.808C223.859 34.4907 223.368 35.28 222.835 36.176C223.261 36.176 223.688 36.1653 224.115 36.144C224.563 36.1227 225.011 36.0907 225.459 36.048C225.565 36.1547 225.651 36.2933 225.715 36.464C225.779 36.6133 225.811 36.7733 225.811 36.944C224.765 37.328 223.496 37.5413 222.003 37.584C221.469 38.608 220.989 39.632 220.563 40.656C220.157 41.6587 219.805 42.6293 219.507 43.568C219.229 44.5067 219.005 45.392 218.835 46.224C218.685 47.056 218.611 47.8027 218.611 48.464C218.611 49.4027 218.963 49.9253 219.667 50.032C220.307 49.9467 220.915 49.7867 221.491 49.552C222.067 49.3173 222.579 49.0187 223.027 48.656C223.155 48.848 223.229 49.008 223.251 49.136C223.123 49.328 222.899 49.552 222.579 49.808C222.28 50.064 221.949 50.3093 221.587 50.544C221.224 50.8 220.872 51.0133 220.531 51.184C220.189 51.3547 219.933 51.4507 219.763 51.472C219.229 51.4507 218.696 51.3333 218.163 51.12C217.629 50.9067 217.139 50.64 216.691 50.32C216.264 50 215.912 49.648 215.635 49.264C215.357 48.8587 215.219 48.464 215.219 48.08C215.219 47.568 215.283 46.928 215.411 46.16C215.56 45.3707 215.763 44.5173 216.019 43.6C216.275 42.6827 216.573 41.7227 216.915 40.72C217.256 39.7173 217.629 38.7253 218.035 37.744H216.211ZM229.349 51.12C228.133 50.992 227.162 50.4587 226.437 49.52C225.711 48.5813 225.349 47.3867 225.349 45.936C225.349 45.0827 225.477 44.1973 225.733 43.28C225.989 42.3627 226.351 41.4773 226.821 40.624C227.29 39.7493 227.845 38.928 228.485 38.16C229.125 37.392 229.818 36.7307 230.565 36.176C231.738 35.3013 232.837 34.864 233.861 34.864C234.543 35.2267 235.215 35.984 235.877 37.136C235.983 37.136 236.079 37.136 236.165 37.136C236.25 37.1147 236.346 37.104 236.453 37.104C237.583 37.104 238.149 38.1067 238.149 40.112C238.149 41.456 237.925 42.736 237.477 43.952C237.05 45.1467 236.442 46.2347 235.653 47.216C234.885 48.1973 233.957 49.0293 232.869 49.712C231.802 50.3733 230.629 50.8427 229.349 51.12ZM230.981 41.04C230.618 41.5307 230.277 42.064 229.957 42.64C229.637 43.216 229.359 43.8027 229.125 44.4C228.89 44.976 228.709 45.5413 228.581 46.096C228.453 46.6293 228.389 47.1093 228.389 47.536C228.389 48.048 228.474 48.5387 228.645 49.008C228.815 49.4773 229.007 49.744 229.221 49.808C230.181 49.5947 231.055 49.2 231.845 48.624C232.655 48.0267 233.349 47.2907 233.925 46.416C234.522 45.5413 234.981 44.5493 235.301 43.44C235.642 42.3307 235.813 41.1467 235.813 39.888C235.813 39.3333 235.781 38.896 235.717 38.576C235.653 38.256 235.546 37.9787 235.397 37.744C234.458 38.0213 233.615 38.4693 232.869 39.088C232.143 39.7067 231.514 40.3573 230.981 41.04Z" fill="white"/>
</svg>
