<svg width="24" height="24" viewBox="0 0 24 24" fill="none" xmlns="http://www.w3.org/2000/svg">
<path d="M3.60002 2.2002C3.28176 2.2002 2.97654 2.32662 2.7515 2.55167C2.52645 2.77671 2.40002 3.08194 2.40002 3.4002C2.40002 3.71846 2.52645 4.02368 2.7515 4.24872C2.97654 4.47377 3.28176 4.6002 3.60002 4.6002H5.06402L5.43002 6.0666C5.43366 6.08348 5.43766 6.10028 5.44202 6.117L7.07162 12.633L6.00002 13.7034C4.48802 15.2154 5.55842 17.8002 7.69682 17.8002H18C18.3183 17.8002 18.6235 17.6738 18.8486 17.4487C19.0736 17.2237 19.2 16.9185 19.2 16.6002C19.2 16.2819 19.0736 15.9767 18.8486 15.7517C18.6235 15.5266 18.3183 15.4002 18 15.4002H7.69682L8.89682 14.2002H16.8C17.0228 14.2001 17.2412 14.1379 17.4307 14.0207C17.6201 13.9035 17.7732 13.7359 17.8728 13.5366L21.4728 6.3366C21.5642 6.15369 21.6074 5.95046 21.5982 5.7462C21.589 5.54194 21.5277 5.34342 21.4203 5.16947C21.3128 4.99552 21.1627 4.85192 20.9841 4.75229C20.8055 4.65266 20.6045 4.6003 20.4 4.6002H7.53603L7.16402 3.1086C7.09902 2.8491 6.94917 2.61877 6.73827 2.45418C6.52738 2.2896 6.26754 2.2002 6.00002 2.2002H3.60002ZM19.2 20.8002C19.2 21.2776 19.0104 21.7354 18.6728 22.073C18.3353 22.4106 17.8774 22.6002 17.4 22.6002C16.9226 22.6002 16.4648 22.4106 16.1272 22.073C15.7897 21.7354 15.6 21.2776 15.6 20.8002C15.6 20.3228 15.7897 19.865 16.1272 19.5274C16.4648 19.1898 16.9226 19.0002 17.4 19.0002C17.8774 19.0002 18.3353 19.1898 18.6728 19.5274C19.0104 19.865 19.2 20.3228 19.2 20.8002ZM7.80002 22.6002C8.27741 22.6002 8.73525 22.4106 9.07282 22.073C9.41038 21.7354 9.60002 21.2776 9.60002 20.8002C9.60002 20.3228 9.41038 19.865 9.07282 19.5274C8.73525 19.1898 8.27741 19.0002 7.80002 19.0002C7.32263 19.0002 6.8648 19.1898 6.52723 19.5274C6.18967 19.865 6.00002 20.3228 6.00002 20.8002C6.00002 21.2776 6.18967 21.7354 6.52723 22.073C6.8648 22.4106 7.32263 22.6002 7.80002 22.6002Z" fill="#7c292f"/>
</svg>
