<svg width="26" height="17" viewBox="0 0 26 17" fill="none" xmlns="http://www.w3.org/2000/svg">
<path d="M26 2.7118H22.3223C19.7743 0.977597 16.6569 0.100098 13 0.100098C9.3431 0.100098 6.2244 0.977597 3.6777 2.7118H0C0.5564 3.2578 1.0751 4.4538 1.2909 5.3638C0.457365 6.47344 0.00458515 7.82267 0 9.2105C0 12.7946 2.9159 15.7105 6.5 15.7105C8.15768 15.7076 9.75083 15.0676 10.9499 13.923L13 17.0001L15.0501 13.9243C16.249 15.0694 17.8421 15.7098 19.5 15.7131C23.0841 15.7131 26 12.7972 26 9.2131C26 7.7675 25.5099 6.4441 24.7091 5.3651C24.9249 4.4551 25.4436 3.2591 26 2.7131V2.7118ZM6.5 13.6318C4.0625 13.6318 2.08 11.6493 2.08 9.2118C2.08 6.7743 4.0625 4.7918 6.5 4.7918C8.9375 4.7918 10.92 6.7743 10.92 9.2118C10.92 11.6493 8.9375 13.6318 6.5 13.6318ZM13 9.2118C12.9978 7.71223 12.478 6.25939 11.5284 5.09878C10.5789 3.93816 9.25773 3.14093 7.7883 2.8418C9.3535 2.3153 11.089 2.0501 13 2.0501C14.911 2.0501 16.6465 2.3153 18.2117 2.8431C16.7427 3.14214 15.4219 3.93899 14.4724 5.09907C13.5229 6.25915 13.0028 7.71267 13 9.2118ZM19.5 13.6318C17.0625 13.6318 15.08 11.6493 15.08 9.2118C15.08 6.7743 17.0625 4.7918 19.5 4.7918C21.9375 4.7918 23.92 6.7743 23.92 9.2118C23.92 11.6493 21.9375 13.6318 19.5 13.6318ZM6.5 6.4181C4.9595 6.4181 3.705 7.6713 3.705 9.2131C3.705 10.7549 4.9595 12.0081 6.5 12.0081C8.0405 12.0081 9.295 10.7549 9.295 9.2131C9.295 7.6713 8.0405 6.4181 6.5 6.4181ZM6.5 10.0464C6.27589 10.0464 6.06096 9.95737 5.90249 9.7989C5.74403 9.64043 5.655 9.42551 5.655 9.2014C5.655 8.97729 5.74403 8.76236 5.90249 8.60389C6.06096 8.44542 6.27589 8.3564 6.5 8.3564C6.72411 8.3564 6.93904 8.44542 7.09751 8.60389C7.25597 8.76236 7.345 8.97729 7.345 9.2014C7.345 9.42551 7.25597 9.64043 7.09751 9.7989C6.93904 9.95737 6.72411 10.0464 6.5 10.0464ZM19.5 6.4181C17.9595 6.4181 16.705 7.6713 16.705 9.2131C16.705 10.7549 17.9595 12.0081 19.5 12.0081C21.0405 12.0081 22.295 10.7549 22.295 9.2131C22.295 7.6713 21.0405 6.4181 19.5 6.4181ZM19.5 10.0464C19.2759 10.0464 19.061 9.95737 18.9025 9.7989C18.744 9.64043 18.655 9.42551 18.655 9.2014C18.655 8.97729 18.744 8.76236 18.9025 8.60389C19.061 8.44542 19.2759 8.3564 19.5 8.3564C19.7241 8.3564 19.939 8.44542 20.0975 8.60389C20.256 8.76236 20.345 8.97729 20.345 9.2014C20.345 9.42551 20.256 9.64043 20.0975 9.7989C19.939 9.95737 19.7241 10.0464 19.5 10.0464Z" fill="white"/>
</svg>
