<svg width="208" height="37" viewBox="0 0 208 37" fill="none" xmlns="http://www.w3.org/2000/svg">
<path d="M0.192 25.176C0.192 24.408 0.309334 23.416 0.544 22.2C0.8 20.9627 1.12 19.64 1.504 18.232C1.90933 16.8027 2.368 15.352 2.88 13.88C3.392 12.3867 3.91467 10.9893 4.448 9.688C4.98133 8.38667 5.504 7.24533 6.016 6.264C6.528 5.28267 6.98667 4.57867 7.392 4.152C7.60533 4.17333 7.88267 4.25867 8.224 4.408C8.58667 4.536 8.94933 4.696 9.312 4.888C9.67467 5.08 10.0053 5.29333 10.304 5.528C10.6027 5.74133 10.7947 5.944 10.88 6.136C10.2613 6.69067 9.64267 7.53333 9.024 8.664C8.42667 9.77333 7.84 11.0427 7.264 12.472C6.70933 13.9013 6.18667 15.416 5.696 17.016C5.20533 18.5947 4.77867 20.1307 4.416 21.624C4.05333 23.1173 3.76533 24.504 3.552 25.784C3.36 27.064 3.264 28.0987 3.264 28.888C3.264 29.2507 3.296 29.4747 3.36 29.56C2.89067 29.5387 2.54933 29.4533 2.336 29.304C2.12267 29.176 1.952 29.0267 1.824 28.856C1.71733 28.7067 1.61067 28.5467 1.504 28.376C1.41867 28.2267 1.28 28.1093 1.088 28.024C0.938667 27.96 0.810667 27.8107 0.704 27.576C0.597333 27.3413 0.501334 27.0853 0.416 26.808C0.352 26.5093 0.298667 26.2107 0.256 25.912C0.213334 25.6133 0.192 25.368 0.192 25.176ZM10.0515 15.672C10.0515 15.288 10.0728 14.9253 10.1155 14.584C10.1795 14.2427 10.2968 13.9547 10.4675 13.72C10.6382 13.464 10.8728 13.272 11.1715 13.144C11.4702 12.9947 11.8648 12.92 12.3555 12.92C12.6542 12.92 12.9848 12.952 13.3475 13.016C13.7315 13.08 14.0088 13.1973 14.1795 13.368C14.0942 13.7307 14.0195 14.0507 13.9555 14.328C13.9128 14.6053 13.8702 14.9147 13.8275 15.256C13.8062 15.576 13.7848 15.9707 13.7635 16.44C13.7422 16.888 13.7208 17.4747 13.6995 18.2C13.6568 19.6507 13.5822 20.952 13.4755 22.104C13.3902 23.2347 13.1768 24.3653 12.8355 25.496C12.8355 25.5813 12.8675 25.624 12.9315 25.624C13.2515 25.3893 13.6142 25.048 14.0195 24.6C14.4248 24.152 14.8515 23.6507 15.2995 23.096C15.7475 22.52 16.1955 21.912 16.6435 21.272C17.0915 20.632 17.5075 20.0027 17.8915 19.384C18.4035 18.488 18.9688 17.368 19.5875 16.024C20.2062 14.68 20.7182 13.24 21.1235 11.704C21.2515 11.704 21.4115 11.736 21.6035 11.8C21.8168 11.8427 22.0195 11.9067 22.2115 11.992C22.4248 12.056 22.6062 12.1307 22.7555 12.216C22.9262 12.3013 23.0435 12.376 23.1075 12.44C23.0648 13.3573 22.8408 14.296 22.4355 15.256C22.0515 16.216 21.5822 17.144 21.0275 18.04C20.4728 18.936 19.8862 19.7787 19.2675 20.568C18.6488 21.3573 18.0835 22.04 17.5715 22.616C16.5475 23.8107 15.5128 24.8773 14.4675 25.816C13.4435 26.7547 12.2168 27.6613 10.7875 28.536C10.2328 28.3227 9.7955 28.0347 9.4755 27.672C9.1555 27.3307 8.9955 26.968 8.9955 26.584C8.9955 26.328 9.04883 26.04 9.1555 25.72C9.2835 25.3787 9.42217 24.952 9.5715 24.44C9.72083 23.9067 9.84883 23.2453 9.9555 22.456C10.0835 21.6667 10.1475 20.664 10.1475 19.448C10.1475 18.744 10.1262 18.04 10.0835 17.336C10.0622 16.6107 10.0515 16.056 10.0515 15.672ZM33.6753 14.072C33.8886 14.072 34.1339 14.1147 34.4113 14.2C34.7099 14.264 34.9766 14.36 35.2113 14.488C35.4459 14.5947 35.6379 14.712 35.7873 14.84C35.9579 14.968 36.0433 15.0853 36.0433 15.192C35.6166 16.088 35.2219 16.9947 34.8593 17.912C34.4966 18.808 34.1873 19.672 33.9313 20.504C33.6753 21.336 33.4726 22.1147 33.3233 22.84C33.1953 23.5653 33.1313 24.1947 33.1313 24.728C33.1313 25.3253 33.1953 25.8267 33.3233 26.232C33.4513 26.616 33.6646 26.8933 33.9633 27.064C33.7073 27.2347 33.3766 27.3733 32.9713 27.48C32.5659 27.5867 32.2033 27.64 31.8833 27.64C30.7313 27.64 30.1553 26.8507 30.1553 25.272C30.1553 24.056 30.5606 22.392 31.3713 20.28C30.9446 21.2613 30.4539 22.1893 29.8993 23.064C29.3446 23.9173 28.7793 24.6747 28.2033 25.336C27.6273 25.9973 27.0406 26.5413 26.4433 26.968C25.8673 27.3733 25.3339 27.6187 24.8433 27.704C24.0539 27.6613 23.4139 27.288 22.9233 26.584C22.4326 25.8587 22.1873 24.9413 22.1873 23.832C22.1873 22.6373 22.4433 21.3787 22.9553 20.056C23.4673 18.7333 24.1179 17.5067 24.9073 16.376C25.7179 15.2453 26.5926 14.3067 27.5312 13.56C28.4699 12.792 29.3766 12.3867 30.2513 12.344C30.4646 12.408 30.6993 12.536 30.9553 12.728C31.2326 12.92 31.4886 13.144 31.7233 13.4C31.9793 13.656 32.1926 13.9227 32.3633 14.2C32.5339 14.456 32.6299 14.68 32.6513 14.872C31.7979 15 30.9126 15.416 29.9953 16.12C29.0993 16.824 28.2779 17.6773 27.5312 18.68C26.8059 19.6613 26.2086 20.7173 25.7393 21.848C25.2699 22.9787 25.0353 24.0347 25.0353 25.016C25.0353 25.4213 25.1846 25.6773 25.4833 25.784C26.1019 25.656 26.8166 25.1333 27.6273 24.216C28.4379 23.2773 29.4193 21.8373 30.5713 19.896C30.7846 19.512 31.0193 19.0853 31.2753 18.616C31.5526 18.1467 31.8299 17.656 32.1073 17.144C32.3846 16.632 32.6513 16.12 32.9073 15.608C33.1846 15.0747 33.4406 14.5627 33.6753 14.072ZM37.3873 3.672C37.6006 3.8 37.8139 4.01333 38.0273 4.312C38.2619 4.58933 38.4646 4.90933 38.6353 5.272C38.8273 5.61333 38.9766 5.96533 39.0833 6.328C39.1899 6.69067 39.2433 7.02133 39.2433 7.32C38.4326 7.87467 37.7179 8.33333 37.0993 8.696C36.5019 9.05867 35.9579 9.35733 35.4673 9.592C34.9979 9.80533 34.5819 9.96533 34.2193 10.072C33.8566 10.1573 33.5046 10.2 33.1633 10.2C32.4806 10.2 31.8939 9.99733 31.4033 9.592C31.8726 9.42133 32.3633 9.15467 32.8753 8.792C33.3873 8.42933 33.8993 7.992 34.4113 7.48C34.9446 6.968 35.4566 6.392 35.9473 5.752C36.4593 5.112 36.9393 4.41867 37.3873 3.672ZM42.8505 11.48C43.4052 11.6507 43.9278 12.0347 44.4185 12.632C44.9092 13.208 45.2718 13.848 45.5065 14.552C45.2718 15.128 44.9092 15.8213 44.4185 16.632C43.9278 17.4427 43.4372 18.2747 42.9465 19.128C42.4558 19.96 42.0078 20.76 41.6025 21.528C41.2185 22.2747 40.9945 22.8933 40.9305 23.384C41.2718 23.0213 41.6452 22.6053 42.0505 22.136C42.4772 21.6453 42.8825 21.1653 43.2665 20.696C43.6718 20.2053 44.0452 19.768 44.3865 19.384C44.7278 18.9787 44.9945 18.68 45.1865 18.488C45.5918 18.0613 46.0718 17.5707 46.6265 17.016C47.1812 16.44 47.7572 15.9067 48.3545 15.416C48.9732 14.904 49.5918 14.4773 50.2105 14.136C50.8292 13.7733 51.3945 13.592 51.9065 13.592C52.4612 13.592 52.9198 13.784 53.2825 14.168C53.6665 14.5307 53.9652 14.9147 54.1785 15.32C54.1785 15.3627 54.0932 15.4267 53.9225 15.512C53.7732 15.576 53.5492 15.7787 53.2505 16.12C52.9518 16.504 52.6105 17.0373 52.2265 17.72C51.8638 18.3813 51.5012 19.1067 51.1385 19.896C50.7972 20.664 50.5092 21.4533 50.2745 22.264C50.0398 23.0747 49.9225 23.8107 49.9225 24.472C49.9225 25.0053 49.9865 25.3467 50.1145 25.496C50.2638 25.6453 50.4665 25.72 50.7225 25.72C50.9572 25.72 51.2025 25.6667 51.4585 25.56C51.7145 25.4533 51.9172 25.4 52.0665 25.4C52.1518 25.4427 52.2158 25.5387 52.2585 25.688C52.3225 25.816 52.3545 25.9333 52.3545 26.04C52.1838 26.1893 51.9812 26.3387 51.7465 26.488C51.5118 26.6373 51.2665 26.776 51.0105 26.904C50.7545 27.032 50.4985 27.1387 50.2425 27.224C50.0078 27.3093 49.7945 27.352 49.6025 27.352C48.9838 27.352 48.4718 27.256 48.0665 27.064C47.6825 26.8933 47.3732 26.6587 47.1385 26.36C46.9252 26.0613 46.7758 25.7093 46.6905 25.304C46.6052 24.8773 46.5625 24.4293 46.5625 23.96C46.5625 23.704 46.5838 23.416 46.6265 23.096C46.6692 22.776 46.7545 22.4027 46.8825 21.976C47.0105 21.528 47.1918 21.0053 47.4265 20.408C47.6612 19.7893 47.9598 19.0533 48.3225 18.2C48.2798 18.2 47.9918 18.3493 47.4585 18.648C46.9252 18.9467 46.3492 19.4053 45.7305 20.024C44.7278 20.984 43.8212 21.9333 43.0105 22.872C42.2212 23.8107 41.4105 24.856 40.5785 26.008C40.1092 26.6693 39.6932 27.224 39.3305 27.672C38.9892 28.1413 38.6905 28.4507 38.4345 28.6C37.9865 28.344 37.6558 27.9813 37.4425 27.512C37.2292 27.064 37.0692 26.5947 36.9625 26.104C36.9625 25.6987 37.0158 25.1867 37.1225 24.568C37.2505 23.9493 37.4105 23.2667 37.6025 22.52C37.8158 21.752 38.0718 20.952 38.3705 20.12C38.6692 19.288 38.9998 18.456 39.3625 17.624C40.1732 15.7467 40.9092 14.2747 41.5705 13.208C42.2532 12.1413 42.6798 11.5653 42.8505 11.48ZM64.0128 20.728C64.0128 19.2347 64.1834 17.7733 64.5248 16.344C64.8874 14.8933 65.3888 13.528 66.0288 12.248C66.6688 10.9467 67.4261 9.76267 68.3008 8.696C69.1968 7.608 70.1674 6.66933 71.2128 5.88C72.2794 5.09067 73.4101 4.48267 74.6048 4.056C75.7994 3.608 77.0261 3.384 78.2847 3.384C79.7568 3.384 80.8981 3.69333 81.7088 4.312C82.5408 4.93067 82.9568 5.79467 82.9568 6.904C82.9568 7.33067 82.8928 7.768 82.7648 8.216C82.6581 8.664 82.4874 9.112 82.2528 9.56C82.0394 9.98667 81.7834 10.4027 81.4848 10.808C81.1861 11.2133 80.8554 11.5653 80.4928 11.864C79.9381 11.7787 79.4581 11.5333 79.0528 11.128C78.6474 10.7013 78.3914 10.2107 78.2847 9.656C79.0314 9.03733 79.6181 8.39733 80.0448 7.736C80.4928 7.05333 80.7168 6.43467 80.7168 5.88C80.7168 4.94133 80.1301 4.472 78.9568 4.472C78.4661 4.472 77.9541 4.57867 77.4208 4.792C76.9088 4.984 76.3861 5.26133 75.8528 5.624C75.3194 5.98667 74.7968 6.424 74.2848 6.936C73.7941 7.448 73.3354 8.01333 72.9088 8.632C69.9434 12.8987 68.4608 17.2613 68.4608 21.72C68.4608 23.2987 68.7061 24.568 69.1968 25.528C69.6874 26.488 70.3381 27.0533 71.1488 27.224C72.0661 27.0107 73.2288 26.424 74.6368 25.464C76.0448 24.504 77.5808 23.256 79.2448 21.72C79.4581 21.9333 79.5861 22.1573 79.6288 22.392C79.0101 23.2027 78.3701 23.9813 77.7088 24.728C77.0474 25.4747 76.3861 26.1573 75.7248 26.776C75.0848 27.3947 74.4448 27.9387 73.8048 28.408C73.1861 28.8773 72.6101 29.24 72.0768 29.496C69.4314 29.4533 67.4261 28.696 66.0608 27.224C64.6954 25.752 64.0128 23.5867 64.0128 20.728ZM81.6658 26.456C81.6658 25.7093 81.7404 24.8347 81.8898 23.832C82.0391 22.808 82.2524 21.72 82.5298 20.568C82.8284 19.416 83.1698 18.2107 83.5538 16.952C83.9591 15.6933 84.4071 14.4347 84.8978 13.176C85.3244 12.0453 85.8151 10.904 86.3698 9.752C86.9458 8.6 87.5644 7.46933 88.2258 6.36C88.8871 5.25067 89.5698 4.19467 90.2738 3.192C90.9991 2.18933 91.7244 1.272 92.4498 0.439999C92.7911 0.439999 93.1538 0.482665 93.5378 0.567999C93.9431 0.653332 94.3271 0.770665 94.6898 0.919998C95.0738 1.048 95.4151 1.208 95.7138 1.4C96.0338 1.592 96.2898 1.784 96.4818 1.976C94.8818 3.61867 93.4418 5.28267 92.1618 6.968C90.8818 8.632 89.8684 10.2 89.1218 11.672C88.7164 12.4827 88.3431 13.24 88.0017 13.944C87.6818 14.648 87.3831 15.352 87.1058 16.056C86.8284 16.7387 86.5724 17.432 86.3378 18.136C86.1244 18.8187 85.9218 19.544 85.7298 20.312C89.8258 15.0853 92.8658 12.472 94.8498 12.472C95.4044 12.472 96.0018 12.6533 96.6418 13.016C97.2818 13.3787 97.8471 13.8693 98.3378 14.488C97.6764 15.2133 96.9938 16.088 96.2898 17.112C95.5858 18.136 94.9351 19.1707 94.3378 20.216C93.7618 21.24 93.2818 22.2 92.8978 23.096C92.5351 23.9707 92.3538 24.6213 92.3538 25.048C92.3538 25.2613 92.3858 25.4107 92.4498 25.496C92.5138 25.56 92.6524 25.592 92.8658 25.592C93.1858 25.592 93.4418 25.5493 93.6338 25.464C93.8258 25.3787 93.9431 25.336 93.9858 25.336C94.0924 25.5067 94.1564 25.624 94.1778 25.688C94.1991 25.752 94.2098 25.8053 94.2098 25.848C94.2098 25.9333 94.0818 26.0613 93.8258 26.232C93.5698 26.3813 93.2604 26.5413 92.8978 26.712C92.5564 26.8613 92.2151 27 91.8738 27.128C91.5324 27.256 91.2764 27.32 91.1058 27.32C90.8924 27.32 90.6791 27.256 90.4658 27.128C90.2524 27.0213 90.0604 26.872 89.8898 26.68C89.7404 26.488 89.6124 26.2747 89.5058 26.04C89.4204 25.8053 89.3778 25.56 89.3778 25.304C89.3778 24.984 89.4631 24.5147 89.6338 23.896C89.8258 23.256 90.0818 22.52 90.4018 21.688C90.7218 20.8347 91.1058 19.9067 91.5538 18.904C92.0018 17.9013 92.4818 16.8773 92.9938 15.832C92.9938 15.7467 92.9511 15.704 92.8658 15.704C92.8018 15.704 92.6311 15.7893 92.3538 15.96C92.0978 16.1307 91.8524 16.3013 91.6178 16.472C90.8498 17.048 90.0711 17.7627 89.2818 18.616C88.5138 19.448 87.7564 20.3653 87.0098 21.368C86.2844 22.3707 85.5911 23.4373 84.9298 24.568C84.2898 25.6773 83.7351 26.7973 83.2658 27.928C83.2018 28.0773 83.1058 28.216 82.9778 28.344C82.8498 28.472 82.7431 28.536 82.6578 28.536C82.5938 28.536 82.4978 28.4613 82.3698 28.312C82.2631 28.1627 82.1564 27.9707 82.0498 27.736C81.9644 27.5227 81.8791 27.2987 81.7938 27.064C81.7084 26.8293 81.6658 26.6267 81.6658 26.456ZM109.685 13.752C109.6 15.0747 109.365 16.216 108.981 17.176C108.597 18.1147 108.042 18.9467 107.317 19.672C106.613 20.376 105.749 21.016 104.725 21.592C103.701 22.168 102.506 22.7227 101.141 23.256C101.141 23.384 101.13 23.5227 101.109 23.672C101.109 23.8 101.109 23.9387 101.109 24.088C101.109 24.3653 101.13 24.6533 101.173 24.952C101.216 25.2507 101.29 25.528 101.397 25.784C101.504 26.04 101.653 26.2533 101.845 26.424C102.037 26.5733 102.282 26.648 102.581 26.648C103.157 26.648 103.722 26.52 104.277 26.264C104.832 26.008 105.354 25.6987 105.845 25.336C106.357 24.952 106.826 24.5467 107.253 24.12C107.701 23.672 108.096 23.2667 108.437 22.904C108.65 23.096 108.832 23.2773 108.981 23.448C108.021 24.728 106.965 25.7947 105.813 26.648C104.682 27.48 103.605 28.0133 102.581 28.248C101.109 28.0773 99.957 27.544 99.125 26.648C98.3143 25.7307 97.909 24.632 97.909 23.352C97.909 22.4773 98.0263 21.592 98.261 20.696C98.517 19.7787 98.8583 18.904 99.285 18.072C99.733 17.2187 100.245 16.4187 100.821 15.672C101.418 14.9253 102.048 14.2747 102.709 13.72C103.392 13.1653 104.085 12.728 104.789 12.408C105.514 12.088 106.229 11.928 106.933 11.928C107.914 12.056 108.832 12.664 109.685 13.752ZM107.477 14.808C106.901 14.8933 106.304 15.128 105.685 15.512C105.066 15.896 104.48 16.408 103.925 17.048C103.392 17.688 102.901 18.4347 102.453 19.288C102.005 20.1413 101.653 21.0587 101.397 22.04C103.104 21.1867 104.522 20.1413 105.653 18.904C106.784 17.6453 107.392 16.28 107.477 14.808ZM112.677 36.248C112.143 36.0347 111.823 35.6293 111.717 35.032C111.631 34.456 111.269 33.9867 110.629 33.624C110.799 32.536 110.991 31.4373 111.205 30.328C111.418 29.2187 111.685 27.96 112.005 26.552C112.346 25.1227 112.762 23.4693 113.253 21.592C113.765 19.6933 114.405 17.4 115.173 14.712C114.469 14.712 113.914 14.7227 113.509 14.744C113.103 14.7653 112.709 14.808 112.325 14.872C112.239 14.7867 112.165 14.6693 112.101 14.52C112.058 14.3707 112.036 14.232 112.036 14.104C112.25 14.0187 112.687 13.912 113.349 13.784C114.01 13.6347 114.735 13.5067 115.525 13.4C116.037 11.7787 116.623 10.328 117.285 9.048C117.946 7.74667 118.661 6.63733 119.429 5.72C120.197 4.80267 121.007 4.09867 121.861 3.608C122.714 3.11733 123.578 2.872 124.453 2.872C124.709 2.872 124.954 2.89333 125.189 2.936C125.423 2.95733 125.605 2.968 125.733 2.968C125.925 2.81867 126.181 2.69067 126.501 2.584C126.821 2.456 127.098 2.392 127.333 2.392C127.589 2.392 127.919 2.53067 128.325 2.808C128.154 3.10667 127.973 3.512 127.781 4.024C127.589 4.536 127.429 5.03733 127.301 5.528C126.767 7.10667 126.202 8.13067 125.605 8.6C125.37 8.6 125.242 8.29067 125.221 7.672C125.199 7.224 125.135 6.78667 125.029 6.36C124.943 6.168 124.879 5.99733 124.837 5.848C124.815 5.69867 124.805 5.50667 124.805 5.272C124.805 5.144 124.815 4.99467 124.837 4.824C124.858 4.632 124.901 4.32267 124.965 3.896C124.602 3.896 124.197 4.12 123.749 4.568C123.322 5.016 122.863 5.656 122.373 6.488C121.903 7.29867 121.423 8.26933 120.933 9.4C120.442 10.5307 119.973 11.7787 119.525 13.144L122.213 13.048C122.319 13.1547 122.405 13.4 122.469 13.784C122.554 14.1467 122.607 14.5307 122.629 14.936L119.109 14.744C118.298 17.1547 117.541 19.4587 116.837 21.656C116.133 23.8533 115.503 25.88 114.949 27.736C114.394 29.592 113.914 31.2453 113.509 32.696C113.125 34.168 112.847 35.352 112.677 36.248ZM132.769 14.264C132.748 14.6693 132.673 15.096 132.545 15.544C132.438 15.9707 132.3 16.3653 132.129 16.728C131.958 17.0693 131.777 17.3573 131.585 17.592C131.393 17.8267 131.212 17.944 131.041 17.944C130.806 17.9227 130.668 17.7627 130.625 17.464C130.625 17.4 130.646 17.304 130.689 17.176C130.753 17.0267 130.817 16.8667 130.881 16.696C130.945 16.5253 130.998 16.3547 131.041 16.184C131.105 16.0133 131.137 15.864 131.137 15.736C131.137 15.4373 131.062 15.192 130.913 15C130.785 14.7867 130.604 14.68 130.369 14.68C129.516 14.68 128.865 15.2133 128.417 16.28C127.969 17.3467 127.745 18.9147 127.745 20.984C127.745 21.1973 127.756 21.3253 127.777 21.368C128.225 21.3467 128.62 21.336 128.961 21.336C129.324 21.3147 129.676 21.304 130.017 21.304C130.038 21.3467 130.049 21.432 130.049 21.56C130.049 21.752 130.006 21.8907 129.921 21.976C129.43 22.0827 129.036 22.1787 128.737 22.264C128.46 22.328 128.246 22.392 128.097 22.456C127.948 22.52 127.852 22.5947 127.809 22.68C127.788 22.744 127.777 22.84 127.777 22.968C127.777 23.1387 127.777 23.3093 127.777 23.48C127.798 23.6507 127.809 23.864 127.809 24.12C127.809 25.912 127.318 27.352 126.337 28.44C125.377 29.528 124.033 30.1573 122.305 30.328C122.006 30.3067 121.697 30.2213 121.377 30.072C121.057 29.9227 120.748 29.7307 120.449 29.496C120.172 29.2613 119.926 28.9947 119.713 28.696C119.5 28.4187 119.35 28.1307 119.265 27.832C119.265 27.0213 119.436 26.2533 119.777 25.528C120.118 24.7813 120.577 24.1307 121.153 23.576C121.75 23 122.444 22.5413 123.233 22.2C124.044 21.8373 124.918 21.624 125.857 21.56C125.857 21.0267 125.804 20.504 125.697 19.992C125.59 19.48 125.473 18.9893 125.345 18.52C125.238 18.0293 125.132 17.56 125.025 17.112C124.918 16.6427 124.865 16.184 124.865 15.736C124.865 15.16 124.982 14.5947 125.217 14.04C125.452 13.464 125.761 12.9413 126.145 12.472C126.529 11.9813 126.977 11.5653 127.489 11.224C128.001 10.8827 128.534 10.648 129.089 10.52C129.324 10.584 129.633 10.776 130.017 11.096C130.422 11.3947 130.817 11.736 131.201 12.12C131.585 12.504 131.926 12.8987 132.225 13.304C132.524 13.688 132.705 14.008 132.769 14.264ZM122.209 28.856C122.721 28.6427 123.201 28.3333 123.649 27.928C124.118 27.5227 124.524 27.064 124.865 26.552C125.206 26.04 125.473 25.496 125.665 24.92C125.878 24.344 125.985 23.7787 125.985 23.224C125.558 23.288 125.089 23.4907 124.577 23.832C124.065 24.152 123.585 24.5467 123.137 25.016C122.689 25.464 122.316 25.9333 122.017 26.424C121.718 26.9147 121.569 27.3413 121.569 27.704C121.569 28.1733 121.782 28.5573 122.209 28.856ZM152.545 3.352C153.355 3.352 154.198 3.50133 155.073 3.8C155.947 4.09867 156.715 4.48267 157.377 4.952C157.163 6.04 156.961 7.02133 156.769 7.896C156.598 8.77067 156.438 9.57067 156.289 10.296C156.139 11 155.99 11.6507 155.841 12.248C155.713 12.824 155.585 13.368 155.457 13.88C154.945 15.8 154.411 17.5387 153.857 19.096C153.323 20.632 152.747 22.0187 152.129 23.256C151.531 24.4933 150.891 25.592 150.209 26.552C149.547 27.512 148.833 28.3547 148.065 29.08C147.318 29.784 146.571 30.36 145.825 30.808C145.078 31.256 144.385 31.544 143.745 31.672C142.891 31.672 142.102 31.576 141.377 31.384C140.651 31.192 140.022 30.9253 139.489 30.584C138.977 30.264 138.571 29.8693 138.273 29.4C137.995 28.952 137.857 28.4507 137.857 27.896C137.857 27.2987 138.006 26.552 138.305 25.656C138.603 24.7387 139.062 23.6613 139.681 22.424C139.937 22.4453 140.235 22.5093 140.577 22.616C140.918 22.7227 141.259 22.8507 141.601 23C141.942 23.1493 142.251 23.32 142.529 23.512C142.806 23.6827 143.009 23.8533 143.137 24.024C142.454 24.728 141.899 25.5067 141.473 26.36C141.046 27.192 140.833 27.9173 140.833 28.536C140.833 28.8987 140.897 29.2187 141.025 29.496C141.174 29.7947 141.419 30.0613 141.761 30.296C143.062 29.8053 144.331 28.888 145.569 27.544C146.806 26.2213 147.905 24.568 148.865 22.584C149.441 21.4107 149.963 20.0667 150.433 18.552C150.902 17.0373 151.297 15.5227 151.617 14.008C151.958 12.472 152.214 11.0107 152.385 9.624C152.577 8.216 152.673 7.032 152.673 6.072C152.673 5.92267 152.662 5.72 152.641 5.464C152.641 5.18667 152.63 4.90933 152.609 4.632C152.609 4.33333 152.598 4.06667 152.577 3.832C152.555 3.59733 152.545 3.43733 152.545 3.352ZM165.152 26.296C164.746 25.9547 164.469 25.528 164.32 25.016C164.192 24.504 164.128 24.0667 164.128 23.704C164.128 23.256 164.181 22.872 164.288 22.552C164.202 22.552 164.01 22.7227 163.712 23.064C163.413 23.4053 163.082 23.8107 162.72 24.28C162.378 24.7493 162.037 25.208 161.696 25.656C161.354 26.104 161.098 26.4347 160.928 26.648C160.65 26.9467 160.384 27.1813 160.128 27.352C159.893 27.5227 159.701 27.6187 159.552 27.64C159.21 27.6187 158.848 27.544 158.464 27.416C158.101 27.3093 157.749 27.1493 157.408 26.936C157.088 26.7227 156.8 26.4667 156.544 26.168C156.309 25.8693 156.149 25.528 156.064 25.144C156.064 24.5467 156.074 24.056 156.096 23.672C156.138 23.288 156.213 22.872 156.32 22.424C156.512 21.6133 156.789 20.696 157.152 19.672C157.536 18.648 157.973 17.6453 158.464 16.664C158.954 15.6613 159.498 14.7333 160.096 13.88C160.714 13.0053 161.365 12.3227 162.048 11.832C162.24 11.832 162.464 11.8533 162.72 11.896C162.976 11.9173 163.232 11.9707 163.488 12.056C163.765 12.1413 164.021 12.248 164.256 12.376C164.512 12.4827 164.725 12.632 164.896 12.824C164.704 13.0373 164.213 13.752 163.424 14.968C162.656 16.184 161.792 17.9333 160.832 20.216C160.725 20.4507 160.597 20.792 160.448 21.24C160.298 21.688 160.149 22.1573 160 22.648C159.85 23.1387 159.722 23.6187 159.616 24.088C159.53 24.5573 159.488 24.9307 159.488 25.208C159.488 25.3787 159.509 25.5067 159.552 25.592C159.616 25.6773 159.669 25.7413 159.712 25.784C160.032 25.656 160.437 25.304 160.928 24.728C161.418 24.152 162.101 23.2667 162.976 22.072C163.189 21.7733 163.434 21.432 163.712 21.048C164.01 20.664 164.309 20.2587 164.608 19.832C164.906 19.384 165.184 18.9253 165.44 18.456C165.717 17.9867 165.941 17.5173 166.112 17.048C166.197 16.792 166.304 16.4933 166.432 16.152C166.581 15.7893 166.752 15.416 166.944 15.032C167.157 14.648 167.392 14.264 167.648 13.88C167.925 13.4747 168.245 13.1013 168.608 12.76C168.885 12.76 169.184 12.792 169.504 12.856C169.824 12.92 170.122 13.0053 170.4 13.112C170.698 13.1973 170.954 13.304 171.168 13.432C171.381 13.5387 171.541 13.656 171.648 13.784C171.264 14.7227 170.837 15.6507 170.368 16.568C169.898 17.4853 169.461 18.392 169.056 19.288C168.65 20.1627 168.309 21.0373 168.032 21.912C167.754 22.7867 167.616 23.64 167.616 24.472C167.616 24.92 167.648 25.3147 167.712 25.656C167.797 25.976 167.882 26.2533 167.968 26.488C168.053 26.7013 168.128 26.8827 168.192 27.032C168.277 27.1813 168.32 27.3093 168.32 27.416C168.32 27.4373 168.298 27.4693 168.256 27.512C168.234 27.5333 168.213 27.544 168.192 27.544C168.042 27.544 167.85 27.512 167.616 27.448C167.381 27.384 167.114 27.288 166.816 27.16C166.538 27.0533 166.25 26.9253 165.952 26.776C165.674 26.6267 165.408 26.4667 165.152 26.296ZM183.3 14.264C183.279 14.6693 183.204 15.096 183.076 15.544C182.97 15.9707 182.831 16.3653 182.66 16.728C182.49 17.0693 182.308 17.3573 182.116 17.592C181.924 17.8267 181.743 17.944 181.572 17.944C181.338 17.9227 181.199 17.7627 181.156 17.464C181.156 17.4 181.178 17.304 181.22 17.176C181.284 17.0267 181.348 16.8667 181.412 16.696C181.476 16.5253 181.53 16.3547 181.572 16.184C181.636 16.0133 181.668 15.864 181.668 15.736C181.668 15.4373 181.594 15.192 181.444 15C181.316 14.7867 181.135 14.68 180.9 14.68C180.047 14.68 179.396 15.2133 178.948 16.28C178.5 17.3467 178.276 18.9147 178.276 20.984C178.276 21.1973 178.287 21.3253 178.308 21.368C178.756 21.3467 179.151 21.336 179.492 21.336C179.855 21.3147 180.207 21.304 180.548 21.304C180.57 21.3467 180.58 21.432 180.58 21.56C180.58 21.752 180.538 21.8907 180.452 21.976C179.962 22.0827 179.567 22.1787 179.268 22.264C178.991 22.328 178.778 22.392 178.628 22.456C178.479 22.52 178.383 22.5947 178.34 22.68C178.319 22.744 178.308 22.84 178.308 22.968C178.308 23.1387 178.308 23.3093 178.308 23.48C178.33 23.6507 178.34 23.864 178.34 24.12C178.34 25.912 177.85 27.352 176.868 28.44C175.908 29.528 174.564 30.1573 172.836 30.328C172.538 30.3067 172.228 30.2213 171.908 30.072C171.588 29.9227 171.279 29.7307 170.98 29.496C170.703 29.2613 170.458 28.9947 170.244 28.696C170.031 28.4187 169.882 28.1307 169.796 27.832C169.796 27.0213 169.967 26.2533 170.308 25.528C170.65 24.7813 171.108 24.1307 171.684 23.576C172.282 23 172.975 22.5413 173.764 22.2C174.575 21.8373 175.45 21.624 176.388 21.56C176.388 21.0267 176.335 20.504 176.228 19.992C176.122 19.48 176.004 18.9893 175.876 18.52C175.77 18.0293 175.663 17.56 175.556 17.112C175.45 16.6427 175.396 16.184 175.396 15.736C175.396 15.16 175.514 14.5947 175.748 14.04C175.983 13.464 176.292 12.9413 176.676 12.472C177.06 11.9813 177.508 11.5653 178.02 11.224C178.532 10.8827 179.066 10.648 179.62 10.52C179.855 10.584 180.164 10.776 180.548 11.096C180.954 11.3947 181.348 11.736 181.732 12.12C182.116 12.504 182.458 12.8987 182.756 13.304C183.055 13.688 183.236 14.008 183.3 14.264ZM172.74 28.856C173.252 28.6427 173.732 28.3333 174.18 27.928C174.65 27.5227 175.055 27.064 175.396 26.552C175.738 26.04 176.004 25.496 176.196 24.92C176.41 24.344 176.516 23.7787 176.516 23.224C176.09 23.288 175.62 23.4907 175.108 23.832C174.596 24.152 174.116 24.5467 173.668 25.016C173.22 25.464 172.847 25.9333 172.548 26.424C172.25 26.9147 172.1 27.3413 172.1 27.704C172.1 28.1733 172.314 28.5573 172.74 28.856ZM185.211 14.744C185.104 14.616 185.008 14.3493 184.923 13.944C184.837 13.5173 184.795 13.1547 184.795 12.856C185.349 12.8987 185.883 12.9413 186.395 12.984C186.907 13.0053 187.376 13.0267 187.803 13.048C188.123 12.408 188.464 11.7787 188.827 11.16C189.211 10.52 189.573 9.944 189.915 9.432C190.277 8.89867 190.608 8.45067 190.907 8.088C191.227 7.72533 191.472 7.49067 191.643 7.384C191.856 7.384 192.123 7.42667 192.443 7.512C192.784 7.576 193.125 7.672 193.467 7.8C193.808 7.90667 194.117 8.024 194.395 8.152C194.672 8.28 194.864 8.408 194.971 8.536C194.331 9.34667 193.776 10.104 193.307 10.808C192.859 11.4907 192.368 12.28 191.835 13.176C192.261 13.176 192.688 13.1653 193.115 13.144C193.563 13.1227 194.011 13.0907 194.459 13.048C194.565 13.1547 194.651 13.2933 194.715 13.464C194.779 13.6133 194.811 13.7733 194.811 13.944C193.765 14.328 192.496 14.5413 191.003 14.584C190.469 15.608 189.989 16.632 189.563 17.656C189.157 18.6587 188.805 19.6293 188.507 20.568C188.229 21.5067 188.005 22.392 187.835 23.224C187.685 24.056 187.611 24.8027 187.611 25.464C187.611 26.4027 187.963 26.9253 188.667 27.032C189.307 26.9467 189.915 26.7867 190.491 26.552C191.067 26.3173 191.579 26.0187 192.027 25.656C192.155 25.848 192.229 26.008 192.251 26.136C192.123 26.328 191.899 26.552 191.579 26.808C191.28 27.064 190.949 27.3093 190.587 27.544C190.224 27.8 189.872 28.0133 189.531 28.184C189.189 28.3547 188.933 28.4507 188.763 28.472C188.229 28.4507 187.696 28.3333 187.163 28.12C186.629 27.9067 186.139 27.64 185.691 27.32C185.264 27 184.912 26.648 184.635 26.264C184.357 25.8587 184.219 25.464 184.219 25.08C184.219 24.568 184.283 23.928 184.411 23.16C184.56 22.3707 184.763 21.5173 185.019 20.6C185.275 19.6827 185.573 18.7227 185.915 17.72C186.256 16.7173 186.629 15.7253 187.035 14.744H185.211ZM198.349 28.12C197.133 27.992 196.162 27.4587 195.437 26.52C194.711 25.5813 194.349 24.3867 194.349 22.936C194.349 22.0827 194.477 21.1973 194.733 20.28C194.989 19.3627 195.351 18.4773 195.821 17.624C196.29 16.7493 196.845 15.928 197.485 15.16C198.125 14.392 198.818 13.7307 199.565 13.176C200.738 12.3013 201.837 11.864 202.861 11.864C203.543 12.2267 204.215 12.984 204.877 14.136C204.983 14.136 205.079 14.136 205.165 14.136C205.25 14.1147 205.346 14.104 205.453 14.104C206.583 14.104 207.149 15.1067 207.149 17.112C207.149 18.456 206.925 19.736 206.477 20.952C206.05 22.1467 205.442 23.2347 204.653 24.216C203.885 25.1973 202.957 26.0293 201.869 26.712C200.802 27.3733 199.629 27.8427 198.349 28.12ZM199.981 18.04C199.618 18.5307 199.277 19.064 198.957 19.64C198.637 20.216 198.359 20.8027 198.125 21.4C197.89 21.976 197.709 22.5413 197.581 23.096C197.453 23.6293 197.389 24.1093 197.389 24.536C197.389 25.048 197.474 25.5387 197.645 26.008C197.815 26.4773 198.007 26.744 198.221 26.808C199.181 26.5947 200.055 26.2 200.845 25.624C201.655 25.0267 202.349 24.2907 202.925 23.416C203.522 22.5413 203.981 21.5493 204.301 20.44C204.642 19.3307 204.813 18.1467 204.813 16.888C204.813 16.3333 204.781 15.896 204.717 15.576C204.653 15.256 204.546 14.9787 204.397 14.744C203.458 15.0213 202.615 15.4693 201.869 16.088C201.143 16.7067 200.514 17.3573 199.981 18.04Z" fill="#9C887E"/>
</svg>
